name Walk9.mot
datacolumns 19
datarows 30
range 2.88500000 3.03000000
endheader

                time	   L_ground_force_vx	   L_ground_force_vy	   L_ground_force_vz	   L_ground_force_px	   L_ground_force_py	   L_ground_force_pz	   R_ground_force_vx	   R_ground_force_vy	   R_ground_force_vz	   R_ground_force_px	   R_ground_force_py	   R_ground_force_pz	   L_ground_torque_x	   L_ground_torque_y	   L_ground_torque_z	   R_ground_torque_x	   R_ground_torque_y	   R_ground_torque_z	
          2.88500000	          0.05410458	          0.14975684	         -0.00462223	         -0.00039342	          0.00000000	         -0.00008648	        -38.90029997	        708.43821573	        -41.87625168	          0.13124815	          0.00000000	          0.06441868	          0.00000000	          0.00041310	          0.00000000	          0.00000000	          3.18083307	          0.00000000	
          2.89000000	          0.04092887	          0.10592969	         -0.00417546	         -0.00033968	          0.00000000	         -0.00007436	        -36.41829318	        700.77196090	        -41.53121545	          0.13146403	          0.00000000	          0.06415599	          0.00000000	          0.00032261	          0.00000000	          0.00000000	          2.91143989	          0.00000000	
          2.89500000	          0.02924257	          0.06944643	         -0.00355873	         -0.00027835	          0.00000000	         -0.00006070	        -33.97339580	        693.23744243	        -41.28630817	          0.13176221	          0.00000000	          0.06392077	          0.00000000	          0.00023906	          0.00000000	          0.00000000	          2.68785231	          0.00000000	
          2.90000000	          0.01943563	          0.04055805	         -0.00288177	         -0.00021700	          0.00000000	         -0.00004715	        -31.57365870	        685.96544001	        -41.11144173	          0.13214202	          0.00000000	          0.06371215	          0.00000000	          0.00016658	          0.00000000	          0.00000000	          2.50406357	          0.00000000	
          2.90500000	          0.01160951	          0.01882484	         -0.00221974	         -0.00016050	          0.00000000	         -0.00003472	        -29.22559344	        679.09112913	        -40.96746995	          0.13260133	          0.00000000	          0.06352988	          0.00000000	          0.00010692	          0.00000000	          0.00000000	          2.35181266	          0.00000000	
          2.91000000	          0.00567260	          0.00339894	         -0.00161964	         -0.00011158	          0.00000000	         -0.00002401	        -26.93489235	        672.74218437	        -40.81069675	          0.13313635	          0.00000000	          0.06337474	          0.00000000	          0.00006021	          0.00000000	          0.00000000	          2.22180813	          0.00000000	
          2.91500000	          0.00141674	         -0.00676221	         -0.00110671	         -0.00007138	          0.00000000	         -0.00001524	        -24.70692013	        667.02516992	        -40.59877548	          0.13374325	          0.00000000	          0.06324818	          0.00000000	          0.00002549	          0.00000000	          0.00000000	          2.10491549	          0.00000000	
          2.92000000	         -0.00142451	         -0.01274355	         -0.00069026	         -0.00003995	          0.00000000	         -0.00000841	        -22.54670053	        662.01310038	        -40.29749730	          0.13441931	          0.00000000	          0.06315300	          0.00000000	          0.00000121	          0.00000000	          0.00000000	          1.99324344	          0.00000000	
          2.92500000	         -0.00313388	         -0.01557140	         -0.00036860	         -0.00001664	          0.00000000	         -0.00000337	        -20.45728836	        657.73131089	        -39.88722809	          0.13516155	          0.00000000	          0.06309277	          0.00000000	         -0.00001445	          0.00000000	          0.00000000	          1.88147630	          0.00000000	
          2.93000000	         -0.00398222	         -0.01615334	         -0.00013317	         -0.00000038	          0.00000000	          0.00000013	        -18.43834027	        654.14948552	        -39.36827799	          0.13596706	          0.00000000	          0.06307091	          0.00000000	         -0.00002336	          0.00000000	          0.00000000	          1.76786790	          0.00000000	
          2.93500000	         -0.00421130	         -0.01524900	          0.00002833	          0.00001008	          0.00000000	          0.00000237	        -16.48639844	        651.19098049	        -38.76248520	          0.13683491	          0.00000000	          0.06309233	          0.00000000	         -0.00002722	          0.00000000	          0.00000000	          1.65408480	          0.00000000	
          2.94000000	         -0.00402514	         -0.01346304	          0.00012966	          0.00001600	          0.00000000	          0.00000361	        -14.59554085	        648.75310176	        -38.10861279	          0.13776595	          0.00000000	          0.06316209	          0.00000000	         -0.00002754	          0.00000000	          0.00000000	          1.54414156	          0.00000000	
          2.94500000	         -0.00358742	         -0.01125298	          0.00018439	          0.00001852	          0.00000000	          0.00000413	        -12.75902353	        646.72637591	        -37.45478495	          0.13876202	          0.00000000	          0.06328380	          0.00000000	         -0.00002557	          0.00000000	          0.00000000	          1.44351948	          0.00000000	
          2.95000000	         -0.00302299	         -0.00894574	          0.00020490	          0.00001868	          0.00000000	          0.00000413	        -10.97068786	        645.00689481	        -36.85205771	          0.13982428	          0.00000000	          0.06345945	          0.00000000	         -0.00002229	          0.00000000	          0.00000000	          1.35847918	          0.00000000	
          2.95500000	         -0.00242196	         -0.00675865	          0.00020185	          0.00001730	          0.00000000	          0.00000380	         -9.22496955	        643.50382568	        -36.34987677	          0.14095264	          0.00000000	          0.06368743	          0.00000000	         -0.00001842	          0.00000000	          0.00000000	          1.29550153	          0.00000000	
          2.96000000	         -0.00184498	         -0.00482158	          0.00018393	          0.00001505	          0.00000000	          0.00000330	         -7.51729125	        642.15197083	        -35.98985896	          0.14214598	          0.00000000	          0.06396412	          0.00000000	         -0.00001448	          0.00000000	          0.00000000	          1.25993064	          0.00000000	
          2.96500000	         -0.00132906	         -0.00319805	          0.00015789	          0.00001241	          0.00000000	          0.00000271	         -5.84394808	        640.92132596	        -35.80033233	          0.14340216	          0.00000000	          0.06428527	          0.00000000	         -0.00001081	          0.00000000	          0.00000000	          1.25486538	          0.00000000	
          2.97000000	         -0.00089309	         -0.00190398	          0.00012870	          0.00000974	          0.00000000	          0.00000212	         -4.20255535	        639.81890011	        -35.79404924	          0.14471594	          0.00000000	          0.06464401	          0.00000000	         -0.00000760	          0.00000000	          0.00000000	          1.28053566	          0.00000000	
          2.97500000	         -0.00054289	         -0.00092354	          0.00009981	          0.00000726	          0.00000000	          0.00000157	         -2.59119404	        638.88792888	        -35.96822824	          0.14608016	          0.00000000	          0.06503112	          0.00000000	         -0.00000494	          0.00000000	          0.00000000	          1.33454888	          0.00000000	
          2.98000000	         -0.00027537	         -0.00022176	          0.00007339	          0.00000509	          0.00000000	          0.00000110	         -1.00754312	        638.20365373	        -36.30642874	          0.14748738	          0.00000000	          0.06543752	          0.00000000	         -0.00000284	          0.00000000	          0.00000000	          1.41232875	          0.00000000	
          2.98500000	         -0.00008204	          0.00024581	          0.00005064	          0.00000330	          0.00000000	          0.00000071	          0.55179323	        637.86200364	        -36.78163777	          0.14893007	          0.00000000	          0.06585403	          0.00000000	         -0.00000128	          0.00000000	          0.00000000	          1.50766630	          0.00000000	
          2.99000000	          0.00004843	          0.00052622	          0.00003204	          0.00000189	          0.00000000	          0.00000040	          2.09154096	        637.96609955	        -37.36087932	          0.15040068	          0.00000000	          0.06627120	          0.00000000	         -0.00000017	          0.00000000	          0.00000000	          1.61393417	          0.00000000	
          2.99500000	          0.00012827	          0.00066442	          0.00001759	          0.00000084	          0.00000000	          0.00000017	          3.61667001	        638.61224807	        -38.01022293	          0.15189153	          0.00000000	          0.06668103	          0.00000000	          0.00000055	          0.00000000	          0.00000000	          1.72510383	          0.00000000	
          3.00000000	          0.00016932	          0.00070050	          0.00000692	          0.00000009	          0.00000000	          0.00000001	          5.13153402	        639.87902736	        -38.69763757	          0.15339583	          0.00000000	          0.06707809	          0.00000000	          0.00000097	          0.00000000	          0.00000000	          1.83619910	          0.00000000	
          3.00500000	          0.00018226	          0.00066824	         -0.00000046	         -0.00000039	          0.00000000	         -0.00000009	          6.63925123	        641.82117975	        -39.39462742	          0.15490847	          0.00000000	          0.06745935	          0.00000000	          0.00000117	          0.00000000	          0.00000000	          1.94328054	          0.00000000	
          3.01000000	          0.00017614	          0.00059470	         -0.00000516	         -0.00000067	          0.00000000	         -0.00000015	          8.14134120	        644.46591483	        -40.07754903	          0.15642707	          0.00000000	          0.06782494	          0.00000000	          0.00000120	          0.00000000	          0.00000000	          2.04327284	          0.00000000	
          3.01500000	          0.00015828	          0.00050050	         -0.00000777	         -0.00000079	          0.00000000	         -0.00000018	          9.63841684	        647.80996899	        -40.72857183	          0.15795244	          0.00000000	          0.06817742	          0.00000000	          0.00000112	          0.00000000	          0.00000000	          2.13429212	          0.00000000	
          3.02000000	          0.00013431	          0.00040051	         -0.00000882	         -0.00000081	          0.00000000	         -0.00000018	         11.13084097	        651.82166309	        -41.33593462	          0.15948847	          0.00000000	          0.06852002	          0.00000000	          0.00000099	          0.00000000	          0.00000000	          2.21585267	          0.00000000	
          3.02500000	          0.00010832	          0.00030472	         -0.00000880	         -0.00000076	          0.00000000	         -0.00000017	         12.61982170	        656.44707170	        -41.89382568	          0.16104195	          0.00000000	          0.06885727	          0.00000000	          0.00000082	          0.00000000	          0.00000000	          2.28862893	          0.00000000	
          3.03000000	          0.00008309	          0.00021919	         -0.00000809	         -0.00000067	          0.00000000	         -0.00000015	         14.10768739	        661.61586168	        -42.40226559	          0.16262115	          0.00000000	          0.06919491	          0.00000000	          0.00000065	          0.00000000	          0.00000000	          2.35384829	          0.00000000	
